<svg width="767" height="332" viewBox="0 0 767 332" fill="none" xmlns="http://www.w3.org/2000/svg">
<path d="M281.773 153.352C259.092 153.352 238.479 160.781 223.772 174.265C206.644 189.95 197.587 213.733 197.587 243.02C197.587 272.306 206.644 295.913 223.753 311.421C238.4 324.688 259.014 332 281.773 332C300.85 332 346.27 326.32 355.858 273.702C356.075 272.483 355.76 271.225 354.972 270.302C354.204 269.397 353.161 268.886 351.999 268.886H327.921C326.169 268.886 324.653 270.066 324.141 271.815C318.254 292.08 303.508 304.797 281.438 304.797C249.465 304.797 230.387 280.444 230.387 243.02C230.387 225.153 234.896 208.092 243.44 197.537C252.418 186.432 265.55 180.555 281.458 180.555C303.508 180.555 318.274 193.626 324.161 213.949C324.673 215.699 326.189 216.898 327.941 216.898H351.862C353.043 216.898 354.086 216.387 354.854 215.483C355.642 214.519 355.957 213.242 355.72 211.984C345.699 161.253 305.103 153.371 281.812 153.371" fill="#2C324F"/>
<path d="M610.127 114.906V92.2626C610.127 90.985 609.084 89.9432 607.804 89.9432H584.828C553.013 89.9432 534.014 108.518 534.014 139.632V154.393H511.786C510.329 154.393 509.148 155.573 509.148 157.027V177.371C509.148 178.078 509.424 178.727 509.916 179.238C510.408 179.729 511.077 180.004 511.786 180.004H534.014V327.46C534.014 328.914 535.195 330.093 536.652 330.093H566.912C568.369 330.093 569.55 328.914 569.55 327.46V180.004H595.401C596.857 180.004 598.039 178.825 598.039 177.371V157.027C598.039 155.573 596.857 154.393 595.401 154.393H569.55V144.723C569.55 126.208 577.996 117.225 595.401 117.225H607.804C609.084 117.225 610.127 116.183 610.127 114.906Z" fill="#2C324F"/>
<path d="M740.953 310.772C757.983 295.009 766.98 271.501 766.98 242.745C766.98 213.989 757.983 190.481 740.953 174.717C726.167 161.037 705.633 153.509 683.13 153.509C644.443 153.509 599.279 176.879 599.279 242.745C599.279 272.935 608.493 296.266 626.665 312.109C641.372 324.924 661.414 331.98 683.13 331.98C704.845 331.98 726.167 324.452 740.953 310.753V310.772ZM646.963 290.331C637.08 279.658 632.079 262.302 632.079 242.725C632.079 223.148 637.08 205.792 646.963 195.12C655.941 185.429 668.443 180.299 683.13 180.299C697.817 180.299 710.082 185.429 719.021 195.12C728.865 205.812 733.846 223.168 733.846 242.705C733.846 262.243 728.865 279.618 719.021 290.291C710.082 299.981 697.679 305.111 683.13 305.111C668.58 305.111 655.921 299.981 646.963 290.291" fill="#2C324F"/>
<path d="M192.114 156.221C191.307 154.433 189.614 153.312 187.665 153.312L128.129 153.764C96.0374 153.764 68.8878 129.824 64.97 98.0413L64.8912 97.4713L65.4031 97.2551C73.3176 93.8744 81.7243 92.1447 90.4067 92.1447H156.322C160.515 92.1447 164.413 89.8843 166.52 86.2677L212.019 7.29217C212.983 5.6018 212.865 3.57729 211.723 1.9852C210.818 0.746907 209.243 0 207.49 0H128.109C105.468 0 83.8113 8.41253 67.0963 23.7241C50.4797 38.9178 40.1829 59.556 38.096 81.8059L38.0566 82.1597L37.781 82.3563C14.1162 99.2993 0 126.738 0 155.691C0 205.458 40.6161 245.948 90.5248 245.948L136.201 245.595C140.355 245.555 144.233 243.315 146.301 239.718L191.72 160.88C192.587 159.366 192.744 157.617 192.114 156.221ZM90.4067 219.217C70.4629 219.217 52.0547 210.117 39.8679 194.255C27.7008 178.393 23.8026 157.951 29.138 138.158C31.1462 130.689 34.8082 123.554 40.0254 116.93L41.2461 115.377L41.6792 116.753C47.2509 134.817 58.7092 151.052 73.9476 162.472C89.7176 174.285 108.48 180.516 128.227 180.516L143.603 180.398C144.863 180.398 145.986 181.046 146.616 182.108C147.246 183.189 147.246 184.466 146.616 185.528L129.743 214.814C128.286 217.33 125.569 218.922 122.655 218.942L90.4264 219.197L90.4067 219.217ZM68.9863 66.7695C78.7121 42.4557 101.924 26.7314 128.109 26.7314H163.98C165.221 26.7314 166.343 27.38 166.953 28.4414C167.583 29.5225 167.583 30.8001 166.953 31.8615L150.002 61.2857C148.525 63.8409 145.789 65.4133 142.855 65.4133H90.4067C83.4766 65.4133 76.5661 66.1995 69.8722 67.7719L68.4547 68.1061L68.9863 66.7499V66.7695Z" fill="#06A76C"/>
<path d="M375.467 330.074H492.709C494.953 330.074 496.784 328.246 496.784 326.005V308.04C496.784 305.799 494.953 303.971 492.709 303.971H410.335V300.591C410.335 287.245 421.99 278.38 448.135 263.56L449.947 262.577C471.052 251.059 497.316 236.71 497.316 203.768C497.316 170.825 474.379 153.352 435.949 153.352C411.693 153.352 394.21 160.605 383.992 174.914C375.33 187.041 374.05 201.606 374.05 209.193V212.809C374.05 215.05 375.881 216.878 378.125 216.878H402.046C404.29 216.878 406.121 215.05 406.121 212.809V210.746C406.121 191.916 417.344 180.201 435.437 180.201C444.887 180.201 452.821 182.992 457.743 188.044C462.074 192.505 464.181 198.599 463.964 206.146C463.708 225.35 447.722 234.096 427.463 245.162C424.628 246.715 421.734 248.287 418.741 249.978C378.972 272.857 371.431 293.691 371.431 324.118V325.985C371.431 328.226 373.262 330.054 375.507 330.054" fill="#2C324F"/>
</svg>
